<?xml version="1.0" encoding="UTF-8"?>
<!-- Generator: visioncortex VTracer -->
<svg id="svg" version="1.1" xmlns="http://www.w3.org/2000/svg" viewBox="0 0 948 263" style="display: block;"><path d="M0 0 C1.06228648 -0.00303257 1.06228648 -0.00303257 2.14603329 -0.0061264 C4.49792228 -0.00908328 6.84912015 0.00947795 9.20092773 0.02832031 C10.8699122 0.03105072 12.53889908 0.03255076 14.20788574 0.03289795 C18.67709807 0.03790029 23.14601433 0.06210534 27.61513138 0.09054565 C31.30019282 0.11170238 34.98525008 0.12175304 38.6703558 0.13183594 C67.72674196 0.21382766 96.77517434 0.5920011 125.82202148 1.35644531 C126.16476554 3.02120217 126.49566451 4.68839855 126.82202148 6.35644531 C127.00764648 7.28457031 127.19327148 8.21269531 127.38452148 9.16894531 C127.82202148 12.35644531 127.82202148 12.35644531 127.82202148 20.35644531 C87.56202148 20.35644531 47.30202148 20.35644531 5.82202148 20.35644531 C6.31702148 21.84144531 6.31702148 21.84144531 6.82202148 23.35644531 C6.91341117 26.14068242 6.94800234 28.89929029 6.93554688 31.68334961 C6.93566741 32.54607137 6.93578794 33.40879313 6.93591213 34.29765797 C6.93516537 37.0920195 6.92754786 39.88631445 6.91967773 42.68066406 C6.91820758 44.40515104 6.91718732 46.12963846 6.91662598 47.85412598 C6.91138157 54.25073922 6.89742039 60.64734292 6.88452148 67.04394531 C6.86389648 81.33707031 6.84327148 95.63019531 6.82202148 110.35644531 C56.32202148 110.35644531 105.82202148 110.35644531 156.82202148 110.35644531 C156.82202148 88.90644531 156.82202148 67.45644531 156.82202148 45.35644531 C162.76202148 44.86144531 162.76202148 44.86144531 168.82202148 44.35644531 C169.81202148 43.69644531 170.80202148 43.03644531 171.82202148 42.35644531 C174.50952148 42.23144531 174.50952148 42.23144531 176.82202148 42.35644531 C177.83762863 51.25553079 178.00155212 60.11421178 178.02514648 69.05957031 C178.02797386 69.7909597 178.03080124 70.52234909 178.03371429 71.27590179 C178.04858106 75.13543544 178.05789322 78.99493281 178.06225586 82.85449219 C178.0677684 86.82086394 178.09189011 90.78689728 178.12022781 94.75316238 C178.13889324 97.82620215 178.14406153 100.89916024 178.14559174 103.97225189 C178.14860243 105.43459706 178.15657699 106.89694135 178.16977692 108.35923004 C178.29458155 123.22715043 178.29458155 123.22715043 174.82202148 128.35644531 C170.32604616 131.13114785 166.91224852 131.73251956 161.67089844 131.74121094 C160.98233765 131.74658371 160.29377686 131.75195648 159.58435059 131.75749207 C158.09973761 131.76722476 156.61506806 131.77022793 155.13042641 131.76713562 C152.78070203 131.76263866 150.43172318 131.77670729 148.08207703 131.79553223 C142.25181756 131.83844517 136.42157629 131.84958249 130.59118652 131.86175537 C125.65327706 131.87327423 120.71571066 131.896792 115.77794456 131.93644714 C113.46284531 131.95003367 111.14820769 131.94584524 108.83308411 131.94104004 C107.417037 131.95037749 106.00099505 131.96054551 104.58496094 131.97167969 C102.73013847 131.97476135 102.73013847 131.97476135 100.83784485 131.97790527 C97.8577456 132.12406704 97.8577456 132.12406704 95.87980652 133.65002441 C94.10026196 136.5207892 95.16603481 139.19578224 95.82202148 142.35644531 C98.64977407 143.29902951 100.52491855 143.50442325 103.46264648 143.56738281 C104.36885742 143.59574219 105.27506836 143.62410156 106.20874023 143.65332031 C108.10178241 143.70497221 109.99503794 143.74936796 111.88842773 143.78613281 C120.59316705 144.08162608 126.52347399 146.20437567 132.82202148 152.35644531 C135.11851161 156.42749599 134.82202148 158.34168879 134.82202148 163.35644531 C99.51202148 163.35644531 64.20202148 163.35644531 27.82202148 163.35644531 C27.82202148 156.6988096 28.89462808 154.37537584 32.82202148 149.35644531 C36.91214561 145.55847291 39.97678978 144.27031067 45.49780273 144.11035156 C46.40852539 144.07748047 47.31924805 144.04460937 48.25756836 144.01074219 C50.16370903 143.94992168 52.06996432 143.89258575 53.97631836 143.83886719 C58.9478049 143.65318094 63.15831623 143.28598501 67.82202148 141.35644531 C67.49202148 138.38644531 67.16202148 135.41644531 66.82202148 132.35644531 C65.92079559 132.35057907 65.0195697 132.34471283 64.09103394 132.33866882 C55.58679743 132.28070138 47.08282243 132.20860131 38.57884026 132.1207304 C34.20712003 132.07605349 29.83549243 132.03679154 25.46362305 132.01000977 C21.2424131 131.98394993 17.02156006 131.94352878 12.80057144 131.89325905 C11.19232761 131.87660841 9.58402207 131.8650829 7.97570419 131.85883141 C5.7182065 131.84917041 3.46161813 131.82108902 1.2043457 131.78881836 C-0.07916779 131.7777153 -1.36268127 131.76661224 -2.68508911 131.75517273 C-6.50962678 131.31858632 -8.92747184 130.39518142 -12.17797852 128.35644531 C-15.51341448 122.84176442 -15.58360338 117.8710686 -15.42797852 111.54394531 C-15.42282227 110.68607422 -15.41766602 109.82820313 -15.41235352 108.94433594 C-15.33333314 102.66715455 -15.33333314 102.66715455 -14.17797852 100.35644531 C-15.0493042 100.46037598 -15.0493042 100.46037598 -15.93823242 100.56640625 C-21.95334148 101.20339349 -27.90907328 101.44460424 -33.95141602 101.49707031 C-35.53344848 101.51650288 -37.11547972 101.5360356 -38.69750977 101.55566406 C-41.13998636 101.58478229 -43.58150723 101.60645095 -46.02416992 101.60693359 C-48.41740552 101.61026613 -50.80854557 101.64473686 -53.20141602 101.68457031 C-53.92855804 101.67750061 -54.65570007 101.67043091 -55.40487671 101.66314697 C-59.37490409 101.75830387 -60.99665701 102.20164142 -64.05932617 104.81640625 C-65.10805908 106.07372559 -65.10805908 106.07372559 -66.17797852 107.35644531 C-69.71989336 109.8357857 -72.935852 109.72214587 -77.17797852 109.35644531 C-80.77268155 107.90473832 -83.74757822 106.42642464 -86.17797852 103.35644531 C-87.76097437 98.60745776 -87.73005747 94.7918506 -85.92797852 90.10644531 C-83.1710935 85.77419743 -81.44666291 84.67361641 -76.42797852 83.41894531 C-71.58602444 82.958237 -68.16656707 84.77559389 -64.17797852 87.35644531 C-63.27230133 88.12279045 -63.27230133 88.12279045 -62.34832764 88.90461731 C-59.85145063 90.57487208 -58.56453725 90.74708353 -55.59301758 90.78881836 C-54.69238586 90.80861252 -53.79175415 90.82840668 -52.86383057 90.84880066 C-51.41831818 90.85838554 -51.41831818 90.85838554 -49.94360352 90.86816406 C-48.45386017 90.89509087 -48.45386017 90.89509087 -46.934021 90.92256165 C-43.76538321 90.97669537 -40.59689633 91.01057059 -37.42797852 91.04394531 C-35.27821792 91.07711564 -33.12847724 91.11160503 -30.97875977 91.14746094 C-25.71194151 91.23242384 -20.44516825 91.29922074 -15.17797852 91.35644531 C-14.84797852 86.73644531 -14.51797852 82.11644531 -14.17797852 77.35644531 C-15.30333008 77.51886719 -16.42868164 77.68128906 -17.58813477 77.84863281 C-20.67711532 78.23874829 -23.68616983 78.41760414 -26.79907227 78.42675781 C-38.59805327 78.44096229 -38.59805327 78.44096229 -48.20532227 84.80957031 C-51.2884972 87.22726788 -53.98994222 87.26317257 -57.80688477 86.98925781 C-61.83201114 85.91500662 -64.60910432 83.5852138 -67.17797852 80.35644531 C-68.76097437 75.60745776 -68.73005747 71.7918506 -66.92797852 67.10644531 C-65.14681825 64.30747918 -63.97255042 63.0705149 -61.17797852 61.35644531 C-56.65027858 60.46199923 -52.04475366 60.22628955 -48.01000977 62.66894531 C-46.17797852 64.29394531 -46.17797852 64.29394531 -44.61547852 65.94628906 C-41.67294019 68.83285519 -38.08954684 68.53995274 -34.19750977 68.67285156 C-33.03413086 68.71474609 -31.87075195 68.75664062 -30.67211914 68.79980469 C-29.45717773 68.83912109 -28.24223633 68.8784375 -26.99047852 68.91894531 C-25.76393555 68.96212891 -24.53739258 69.0053125 -23.27368164 69.04980469 C-20.24191659 69.15597545 -17.20996252 69.25672296 -14.17797852 69.35644531 C-14.17797852 65.39644531 -14.17797852 61.43644531 -14.17797852 57.35644531 C-20.39029547 59.09859143 -20.39029547 59.09859143 -25.74047852 62.48144531 C-29.06718567 65.04045082 -32.00197487 65.70102715 -36.17797852 65.35644531 C-40.51246675 63.1892012 -43.70593934 60.53989622 -46.17797852 56.35644531 C-46.90845738 52.31829251 -46.60131666 49.26359849 -44.86547852 45.54394531 C-42.39684285 42.34386204 -41.07127238 40.65420993 -37.17797852 39.35644531 C-31.73029303 39.05379612 -27.71752881 39.34231922 -23.36547852 42.79394531 C-22.17797852 44.35644531 -22.17797852 44.35644531 -22.17797852 47.35644531 C-19.53797852 47.35644531 -16.89797852 47.35644531 -14.17797852 47.35644531 C-14.17797852 43.39644531 -14.17797852 39.43644531 -14.17797852 35.35644531 C-15.10610352 35.51757812 -16.03422852 35.67871094 -16.99047852 35.84472656 C-20.15146883 36.3002717 -23.23529942 36.43156758 -26.42797852 36.46191406 C-27.36641602 36.47673828 -28.30485352 36.4915625 -29.27172852 36.50683594 C-31.20907759 36.53157359 -33.14677445 36.53678351 -35.08422852 36.52246094 C-41.29435837 36.66321251 -44.25314741 37.60883316 -48.65356445 42.00073242 C-51.66194839 44.67618982 -54.8716815 44.09632279 -58.65063477 43.88378906 C-63.24653205 42.92483059 -64.94536488 40.11732193 -67.49047852 36.48144531 C-68.78439292 32.4820735 -68.49496162 28.71947268 -67.55297852 24.66894531 C-65.54415574 21.29047065 -63.72871585 20.06840796 -60.17797852 18.35644531 C-55.97844457 17.62016339 -52.04135638 17.35847021 -48.20141602 19.41503906 C-46.55297852 20.73144531 -46.55297852 20.73144531 -44.17797852 23.35644531 C-44.17797852 24.01644531 -44.17797852 24.67644531 -44.17797852 25.35644531 C-34.60797852 25.35644531 -25.03797852 25.35644531 -15.17797852 25.35644531 C-15.29581942 20.36056895 -15.29581942 20.36056895 -15.44824219 15.36572266 C-15.50396055 10.64583796 -14.89742581 7.37957558 -12.17797852 3.35644531 C-8.1104006 0.26575726 -5.04390879 -0.0144674 0 0 Z M-60.17797852 28.35644531 C-60.51131185 30.85644531 -60.51131185 30.85644531 -60.17797852 33.35644531 C-58.2869071 35.68923265 -58.2869071 35.68923265 -55.11547852 35.54394531 C-52.28964715 35.68832325 -52.28964715 35.68832325 -51.17797852 34.35644531 C-51.01131185 30.85644531 -51.01131185 30.85644531 -51.17797852 27.35644531 C-52.28964715 26.02456738 -52.28964715 26.02456738 -55.11547852 26.16894531 C-58.2869071 26.02365798 -58.2869071 26.02365798 -60.17797852 28.35644531 Z M-36.92797852 48.85644531 C-37.34047852 49.35144531 -37.75297852 49.84644531 -38.17797852 50.35644531 C-37.51797852 52.33644531 -36.85797852 54.31644531 -36.17797852 56.35644531 C-34.19797852 56.35644531 -32.21797852 56.35644531 -30.17797852 56.35644531 C-28.86938202 54.65932324 -28.86938202 54.65932324 -28.17797852 52.35644531 C-29.17078355 49.5350735 -29.17078355 49.5350735 -31.17797852 47.35644531 C-35.05595513 46.9225844 -35.05595513 46.9225844 -36.92797852 48.85644531 Z M-60.17797852 71.35644531 C-60.59464518 73.85644531 -60.59464518 73.85644531 -60.17797852 76.35644531 C-58.34882211 78.59489546 -58.34882211 78.59489546 -55.67797852 78.66894531 C-54.85297852 78.56582031 -54.02797852 78.46269531 -53.17797852 78.35644531 C-50.84406648 75.57530475 -50.84406648 75.57530475 -51.55297852 72.66894531 C-51.75922852 71.90582031 -51.96547852 71.14269531 -52.17797852 70.35644531 C-56.35607921 69.16713345 -56.35607921 69.16713345 -60.17797852 71.35644531 Z M-76.17797852 91.35644531 C-78.18517348 93.5350735 -78.18517348 93.5350735 -79.17797852 96.35644531 C-78.76928599 98.67393654 -78.76928599 98.67393654 -77.17797852 100.35644531 C-75.12796981 101.16173421 -75.12796981 101.16173421 -73.17797852 101.35644531 C-71.85797852 99.70644531 -70.53797852 98.05644531 -69.17797852 96.35644531 C-70.38828825 93.78317098 -70.38828825 93.78317098 -72.17797852 91.35644531 C-73.49797852 91.35644531 -74.81797852 91.35644531 -76.17797852 91.35644531 Z " transform="translate(110.177978515625,90.6435546875)" style="fill: #213960;"/><path d="M0 0 C9.70526524 3.73933162 15.10383027 10.96318732 21.06201172 19.09765625 C23.26535677 22.08024308 25.54254133 25.00550499 27.8125 27.9375 C30.35302699 31.23651498 32.87659873 34.5437983 35.375 37.875 C35.705 29.625 36.035 21.375 36.375 12.875 C34.065 12.215 31.755 11.555 29.375 10.875 C27.08486347 7.4397952 27.19657027 5.889669 27.375 1.875 C32.78133165 -1.50061729 37.2748633 -1.55020367 43.4375 -1.4375 C44.32244141 -1.44072266 45.20738281 -1.44394531 46.11914062 -1.44726562 C50.77678526 -1.40883045 54.04495096 -0.91759119 58.375 0.875 C59.365 0.215 60.355 -0.445 61.375 -1.125 C69.41342616 -2.3934489 76.6154051 -0.22580539 83.34765625 4.16015625 C88.00194585 7.83244189 91.73883541 12.5640457 94.375 17.875 C94.375 19.195 94.375 20.515 94.375 21.875 C95.035 21.875 95.695 21.875 96.375 21.875 C96.560625 20.7921875 96.560625 20.7921875 96.75 19.6875 C97.3654931 16.91778106 98.25944374 14.4779646 99.375 11.875 C98.1375 11.3490625 98.1375 11.3490625 96.875 10.8125 C96.05 10.173125 95.225 9.53375 94.375 8.875 C94.0625 5.1875 94.0625 5.1875 94.375 1.875 C100.04317229 -1.81612938 105.3843012 -1.54112937 112 -1.4375 C113.03640625 -1.44072266 114.0728125 -1.44394531 115.140625 -1.44726562 C123.86525323 -1.38526891 123.86525323 -1.38526891 127.375 0.875 C128.21386169 3.55290463 128.19266414 6.0487941 128.375 8.875 C125.21621274 11.63893885 122.00584948 12.84037967 118.08203125 14.12890625 C116.17237121 14.74654003 116.17237121 14.74654003 115.375 16.875 C114.715 16.875 114.055 16.875 113.375 16.875 C113.16875 17.535 112.9625 18.195 112.75 18.875 C111.162008 22.33970983 109.06261964 24.9107432 106.6171875 27.8125 C105.00471073 30.48981991 104.8748673 31.78702471 105.375 34.875 C107.02038771 37.8978708 107.02038771 37.8978708 109.3125 40.9375 C109.92049438 41.77752563 109.92049438 41.77752563 110.54077148 42.63452148 C111.38919845 43.80284983 112.2425504 44.96761625 113.10058594 46.12890625 C114.3315829 47.81551358 115.51740649 49.52603816 116.6953125 51.25 C121.0430466 57.43075092 124.25069616 61.20338606 131.375 63.875 C132.375 64.875 132.375 64.875 132.47265625 66.72265625 C132.44010417 68.7734375 132.40755208 70.82421875 132.375 72.875 C125.78269547 75.3599439 119.71802343 75.20591444 112.75 75.1875 C111.5228125 75.20361328 110.295625 75.21972656 109.03125 75.23632812 C107.26394531 75.23729492 107.26394531 75.23729492 105.4609375 75.23828125 C104.3889209 75.24126221 103.3169043 75.24424316 102.21240234 75.24731445 C99.01588575 74.82787823 97.63659299 74.14495439 95.375 71.875 C94.67916187 67.87393076 95.04036643 66.35603575 97.375 63 C98.035 62.29875 98.695 61.5975 99.375 60.875 C97.065 57.575 94.755 54.275 92.375 50.875 C88.70882649 54.52092536 88.70882649 54.52092536 86.125 58.625 C85.5475 59.6975 84.97 60.77 84.375 61.875 C85.014375 62.08125 85.65375 62.2875 86.3125 62.5 C88.375 63.875 88.375 63.875 89.25 66.75 C89.3778272 69.94568007 89.19073725 71.29474181 87.375 73.875 C83.04626724 76.03936638 77.25460518 75.10465944 72.5 75.125 C70.70369141 75.1559375 70.70369141 75.1559375 68.87109375 75.1875 C67.14439453 75.19523437 67.14439453 75.19523437 65.3828125 75.203125 C64.32723145 75.2124707 63.27165039 75.22181641 62.18408203 75.23144531 C58.99520088 74.82680717 57.62471888 74.1453341 55.375 71.875 C54.9375 68.875 54.9375 68.875 55.375 65.875 C57.39865992 63.34849125 59.11104071 62.47451538 62.1875 61.625 C67.15142918 59.83221977 69.31522898 57.05622555 72.375 52.875 C73.26184134 51.75427398 74.14997705 50.63457157 75.0390625 49.515625 C75.98648262 48.28286692 76.93177841 47.04847346 77.875 45.8125 C78.34534668 45.22299561 78.81569336 44.63349121 79.30029297 44.02612305 C81.43643857 41.13801226 82.47658346 39.56761451 81.9453125 35.9453125 C80.00120616 32.14414935 77.98506087 28.45041822 75.75 24.8125 C75.34910156 24.11833984 74.94820312 23.42417969 74.53515625 22.70898438 C70.79896057 16.61886974 66.15432441 13.1347748 59.375 10.875 C59.375 9.885 59.375 8.895 59.375 7.875 C58.715 7.875 58.055 7.875 57.375 7.875 C57.375 8.865 57.375 9.855 57.375 10.875 C55.065 11.205 52.755 11.535 50.375 11.875 C50.38023682 12.59115479 50.38547363 13.30730957 50.39086914 14.04516602 C50.48270142 28.72786922 50.39307943 43.38668982 49.9375 58.0625 C49.9080278 59.08478195 49.9080278 59.08478195 49.87796021 60.12771606 C49.82115808 62.0579662 49.75646768 63.98797935 49.69140625 65.91796875 C49.65474854 67.02164795 49.61809082 68.12532715 49.58032227 69.26245117 C49.375 71.875 49.375 71.875 48.375 73.875 C45.33369239 75.05957933 42.60325222 75.30030942 39.375 74.875 C32.66324402 70.79352677 28.36969403 62.88490034 23.95703125 56.53515625 C20.76552928 51.96289062 17.33603721 47.58855338 13.89453125 43.203125 C10.59921435 38.85024128 7.5058476 34.34763943 4.375 29.875 C4.045 40.435 3.715 50.995 3.375 61.875 C6.84 62.37 6.84 62.37 10.375 62.875 C12.70028287 65.20028287 12.67011025 65.72165898 12.6875 68.875 C12.70425781 69.57625 12.72101562 70.2775 12.73828125 71 C12.61839844 71.61875 12.49851562 72.2375 12.375 72.875 C8.91403844 75.1823077 7.54558903 75.13194718 3.46484375 75.140625 C1.73331055 75.14449219 1.73331055 75.14449219 -0.03320312 75.1484375 C-1.23912109 75.14070313 -2.44503906 75.13296875 -3.6875 75.125 C-5.50217773 75.13660156 -5.50217773 75.13660156 -7.35351562 75.1484375 C-8.50658203 75.14585937 -9.65964844 75.14328125 -10.84765625 75.140625 C-11.90734619 75.13836914 -12.96703613 75.13611328 -14.05883789 75.13378906 C-16.625 74.875 -16.625 74.875 -18.625 72.875 C-18.890625 71 -18.890625 71 -18.875 68.875 C-18.88015625 68.17375 -18.8853125 67.4725 -18.890625 66.75 C-18.625 64.875 -18.625 64.875 -16.625 62.875 C-14.315 62.875 -12.005 62.875 -9.625 62.875 C-9.625 46.375 -9.625 29.875 -9.625 12.875 C-11.605 12.215 -13.585 11.555 -15.625 10.875 C-16.615 10.215 -17.605 9.555 -18.625 8.875 C-19.03343923 6.16296348 -18.75836867 3.6312858 -18.625 0.875 C-12.83056754 -2.45315228 -6.26666814 -1.83547126 0 0 Z " transform="translate(803.625,118.125)" style="fill: #20375F;"/><path d="M0 0 C0.68578125 0.2479834 1.3715625 0.4959668 2.078125 0.75146484 C6.20214411 2.33522511 9.74605638 3.84676705 12.75 7.1875 C13.92262574 10.33302509 14.50073014 13.50997418 15.0625 16.8125 C15.23072266 17.66457031 15.39894531 18.51664063 15.57226562 19.39453125 C16.64852934 25.20196238 17.74845774 31.30901404 16.75 37.1875 C14.60546875 39.984375 14.60546875 39.984375 11.75 42.1875 C10.35201172 43.49460937 10.35201172 43.49460937 8.92578125 44.828125 C7.98089844 45.68921875 7.03601563 46.5503125 6.0625 47.4375 C5.10988281 48.30890625 4.15726562 49.1803125 3.17578125 50.078125 C0.75 52.1875 0.75 52.1875 -1.25 53.1875 C0.2889711 54.7264711 1.71175408 54.31966578 3.85498047 54.3293457 C5.16171219 54.33989738 5.16171219 54.33989738 6.49484253 54.35066223 C7.44271637 54.35482651 8.39059021 54.35899078 9.3671875 54.36328125 C11.35547936 54.38647788 13.34376065 54.41059516 15.33203125 54.43554688 C18.48135452 54.47070325 21.63028933 54.50002251 24.77978516 54.51342773 C27.80940294 54.52886316 30.83787157 54.56904561 33.8671875 54.61328125 C34.81101288 54.61137283 35.75483826 54.60946442 36.7272644 54.60749817 C43.20525461 54.72924534 43.20525461 54.72924534 45.84277344 56.94799805 C46.80910599 59.333404 47.13684325 61.02534781 47.1484375 63.59375 C47.15230469 64.42003906 47.15617187 65.24632812 47.16015625 66.09765625 C47.14855469 66.95230469 47.13695312 67.80695313 47.125 68.6875 C47.13660156 69.54214844 47.14820313 70.39679688 47.16015625 71.27734375 C47.14317708 74.90522719 47.10586643 77.48957688 45.44140625 80.75390625 C43.75 82.1875 43.75 82.1875 40.3125 82.625 C36.5374214 82.16139386 35.39739755 81.79588327 32.75 79.1875 C31.63406983 75.55019932 31.28432458 71.9722991 30.75 68.1875 C25.47 67.5275 20.19 66.8675 14.75 66.1875 C14.75 73.1175 14.75 80.0475 14.75 87.1875 C16.73 86.6925 16.73 86.6925 18.75 86.1875 C21.08044356 86.04459544 23.41536767 85.96717753 25.75 85.9375 C27.5753125 85.89882812 27.5753125 85.89882812 29.4375 85.859375 C32.95351607 86.20765961 34.36266918 86.6178853 36.75 89.1875 C37.125 92.75 37.125 92.75 36.75 96.1875 C33.67339396 99.26410604 31.40664181 99.17003612 27.078125 99.28515625 C25.7187113 99.27948898 24.35932448 99.26657355 23 99.25 C20.6075 99.229375 18.215 99.20875 15.75 99.1875 C16.245 108.0975 16.245 108.0975 16.75 117.1875 C22.36 117.1875 27.97 117.1875 33.75 117.1875 C34.08 115.2075 34.41 113.2275 34.75 111.1875 C37.79761905 106.13988095 37.79761905 106.13988095 39.75 104.1875 C45.9479488 103.60278785 45.9479488 103.60278785 48.984375 105.81640625 C51.90031102 109.73227608 50.82182934 113.25646576 50.29296875 117.90625 C49.58850296 122.16345336 48.80255394 125.37561411 46.75 129.1875 C43.39792482 130.20154165 40.14160844 130.32112114 36.65600586 130.34863281 C35.66825668 130.35824036 34.68050751 130.3678479 33.66282654 130.37774658 C32.60749222 130.38199646 31.5521579 130.38624634 30.46484375 130.390625 C29.37160294 130.39632507 28.27836212 130.40202515 27.1519928 130.40789795 C24.84474653 130.41732852 22.53748692 130.42387419 20.23022461 130.42773438 C16.69686651 130.43747418 13.16408192 130.4685302 9.63085938 130.5 C7.38802428 130.50652712 5.14518504 130.51177873 2.90234375 130.515625 C1.31630592 130.5341452 1.31630592 130.5341452 -0.30177307 130.55303955 C-1.77866859 130.5485379 -1.77866859 130.5485379 -3.28540039 130.54394531 C-4.58182213 130.54941376 -4.58182213 130.54941376 -5.9044342 130.55499268 C-8.79106974 130.10272763 -10.16567988 129.21350824 -12.25 127.1875 C-12.76020728 123.10584173 -12.56361802 121.65792703 -10.25 118.1875 C-7.61 118.1875 -4.97 118.1875 -2.25 118.1875 C-2.58 101.3575 -2.91 84.5275 -3.25 67.1875 C-5.56 66.8575 -7.87 66.5275 -10.25 66.1875 C-11.75 64.5625 -11.75 64.5625 -12.25 62.1875 C-11.875 58.4375 -11.875 58.4375 -11.25 55.1875 C-11.91 55.08050781 -12.57 54.97351563 -13.25 54.86328125 C-17.04937094 54.00743337 -20.60398969 52.73048169 -24.25 51.375 C-25.29800781 51.0027832 -25.29800781 51.0027832 -26.3671875 50.62304688 C-30.58676502 49.0586186 -34.24965346 47.65238107 -37.25 44.1875 C-38.43261355 40.64233149 -39.00451141 37.06352195 -39.5625 33.375 C-39.81483398 31.91610352 -39.81483398 31.91610352 -40.07226562 30.42773438 C-41.85399764 19.68643567 -41.85399764 19.68643567 -41.25 15.1875 C-39.08203125 12.56640625 -39.08203125 12.56640625 -36.25 10.1875 C-35.38761719 9.35089844 -34.52523438 8.51429687 -33.63671875 7.65234375 C-21.59028433 -3.62702394 -15.36285733 -5.57668938 0 0 Z " transform="translate(341.25,62.8125)" style="fill: #1F375D;"/><path d="M0 0 C2.9375 2.4375 2.9375 2.4375 5 5 C5.66 5.70125 6.32 6.4025 7 7.125 C9.99903936 11.43611908 14 17.61417792 14 23 C14.66 23 15.32 23 16 23 C16.226875 22.195625 16.45375 21.39125 16.6875 20.5625 C18.33631588 16.08714261 20.60544412 12.11278682 23 8 C21.824375 8.0928125 21.824375 8.0928125 20.625 8.1875 C19.325625 8.0946875 19.325625 8.0946875 18 8 C15.68432616 4.52648925 15.40412423 3.08600528 16 -1 C19.70840251 -3.88262436 22.49678204 -4.36855221 27.125 -4.328125 C28.98958862 -4.32171997 28.98958862 -4.32171997 30.8918457 -4.31518555 C32.26124275 -4.29424511 33.63062756 -4.27249207 35 -4.25 C36.42862171 -4.23591485 37.85725192 -4.22267165 39.28588867 -4.21020508 C42.43350445 -4.1784796 45.58068018 -4.13435537 48.72802734 -4.08251953 C52.44964758 -4.02149778 56.17113732 -3.9747736 59.89306641 -3.93701172 C65.01908729 -3.88454848 70.1446249 -3.81507126 75.27026367 -3.73352051 C77.29559314 -3.70288295 79.32099299 -3.67658487 81.34643555 -3.65466309 C84.20666853 -3.62141549 87.06594232 -3.56903427 89.92578125 -3.51171875 C90.78480545 -3.50530869 91.64382965 -3.49889862 92.52888489 -3.49229431 C95.99128842 -3.40620065 98.40360344 -3.30229663 101.52246094 -1.72143555 C103.28042844 0.32671859 103.5632527 1.37973077 103.71484375 4.0546875 C103.76060547 4.83457031 103.80636719 5.61445312 103.85351562 6.41796875 C103.88123047 7.22878906 103.90894531 8.03960937 103.9375 8.875 C103.99228516 9.67808594 104.04707031 10.48117188 104.10351562 11.30859375 C104.32678446 16.06382831 104.14430993 19.15444109 101 23 C98.04335481 24.4783226 95.25770263 24.06032783 92 24 C91.34371151 22.79731319 90.70052495 21.58747446 90.0625 20.375 C89.52302734 19.36566406 89.52302734 19.36566406 88.97265625 18.3359375 C88 16 88 16 87 10 C82.05 9.67 77.1 9.34 72 9 C72 15.6 72 22.2 72 29 C72.66 28.67 73.32 28.34 74 28 C76.66007481 27.84948434 79.27654185 27.76872266 81.9375 27.75 C82.66646484 27.729375 83.39542969 27.70875 84.14648438 27.6875 C89.47471244 27.64842958 89.47471244 27.64842958 91.984375 29.328125 C93.56522936 31.93045449 93.3094334 34.02943939 93 37 C92.34 37.99 91.68 38.98 91 40 C89.02880859 40.34057617 89.02880859 40.34057617 86.6484375 40.29296875 C85.88192871 40.28547607 85.11541992 40.2779834 84.32568359 40.27026367 C83.35195801 40.24295166 82.37823242 40.21563965 81.375 40.1875 C76.734375 40.0946875 76.734375 40.0946875 72 40 C72.495 49.405 72.495 49.405 73 59 C78.61 59 84.22 59 90 59 C90.33 57.35 90.66 55.7 91 54 C93.94267516 47.52866242 93.94267516 47.52866242 97 46 C100.2266007 45.71942603 102.30210528 45.61395734 105.16796875 47.19921875 C107 49 107 49 107.49609375 51.34765625 C107.16176471 66.83823529 107.16176471 66.83823529 102 72 C99.69166565 72.27415466 99.69166565 72.27415466 96.77172852 72.30639648 C95.13476768 72.33037758 95.13476768 72.33037758 93.46473694 72.35484314 C91.68975075 72.36288719 91.68975075 72.36288719 89.87890625 72.37109375 C88.06264992 72.38463646 88.06264992 72.38463646 86.20970154 72.39845276 C83.64495324 72.41298207 81.08016766 72.42184861 78.51538086 72.42553711 C74.58188795 72.43744132 70.64995877 72.48661159 66.71679688 72.53710938 C64.22917436 72.5465719 61.74154216 72.55380775 59.25390625 72.55859375 C57.48195641 72.58789223 57.48195641 72.58789223 55.67420959 72.61778259 C54.57975021 72.61170486 53.48529083 72.60562714 52.35766602 72.59936523 C51.39329117 72.60443588 50.42891632 72.60950653 49.43531799 72.61473083 C47 72 47 72 45.13389587 69.66175842 C44 67 44 67 44.5 63.8125 C46 61 46 61 48.4375 59.625 C51 59 51 59 54 59 C53.67 42.83 53.34 26.66 53 10 C47.72 10 42.44 10 37 10 C36.61070312 11.28132812 36.22140625 12.56265625 35.8203125 13.8828125 C34.04874441 19.19751678 31.55856596 23.97188525 28.875 28.875 C27.97462525 30.53801511 27.0761034 32.20203511 26.1796875 33.8671875 C25.78507324 34.59019043 25.39045898 35.31319336 24.98388672 36.05810547 C22.42514473 41.10828755 22.64098367 46.40081063 22.39453125 51.92773438 C22.10073855 57.79852289 22.10073855 57.79852289 21 60 C22.918125 60.185625 22.918125 60.185625 24.875 60.375 C28.75 60.75 28.75 60.75 31 63 C30.875 66.5 30.875 66.5 30 70 C25.29203478 73.46013893 18.63862826 72.41047583 13.0456543 72.42553711 C10.94007704 72.43748538 8.83738551 72.48673964 6.73242188 72.53710938 C5.39324343 72.5465689 4.05404705 72.55380619 2.71484375 72.55859375 C0.89134399 72.57877563 0.89134399 72.57877563 -0.96899414 72.59936523 C-4 72 -4 72 -5.93139648 69.63305664 C-7.19039337 66.5308676 -7.09966613 65.12981898 -6 62 C-4 60 -4 60 -0.375 59.875 C1.295625 59.936875 1.295625 59.936875 3 60 C1.07981437 44.34190092 -1.72285012 21.65450299 -15 11 C-17.26027345 9.7951851 -17.26027345 9.7951851 -19.6875 8.8125 C-20.49574219 8.46832031 -21.30398438 8.12414062 -22.13671875 7.76953125 C-22.75160156 7.51558594 -23.36648438 7.26164063 -24 7 C-24.23397834 4.14546425 -24.42468097 1.796276 -24 -1 C-17.47892973 -7.52107027 -7.12851828 -3.45217552 0 0 Z " transform="translate(413,121)" style="fill: #203860;"/><path d="M0 0 C8.88685741 7.09681305 15.70756776 17.58351517 17 29 C17.96665633 41.86573546 14.24851112 54.77585669 6.40625 65.09765625 C-0.89644237 72.93427188 -10.40697065 77.69757836 -21 79 C-36.14653038 79.50083718 -47.79721991 75.40258151 -59 65 C-65.57361959 58.76639521 -69.53935899 50.29837998 -70.203125 41.22265625 C-70.41163863 27.16536233 -67.65332717 14.65365831 -58.1171875 3.87109375 C-41.97960817 -11.25380348 -18.25036817 -11.66080096 0 0 Z M-45 13 C-45 27.52 -45 42.04 -45 57 C-33.12 57 -21.24 57 -9 57 C-9 54.03 -9 51.06 -9 48 C-16.92 48 -24.84 48 -33 48 C-32.67 45.36 -32.34 42.72 -32 40 C-21.605 39.505 -21.605 39.505 -11 39 C-11 36.36 -11 33.72 -11 31 C-18.26 31 -25.52 31 -33 31 C-33 28.36 -33 25.72 -33 23 C-32.27296875 23.01160156 -31.5459375 23.02320313 -30.796875 23.03515625 C-23.47368041 23.10087723 -16.28633314 22.7234657 -9 22 C-9 19.03 -9 16.06 -9 13 C-20.88 13 -32.76 13 -45 13 Z " transform="translate(216,121)" style="fill: #213960;"/><path d="M0 0 C6.75442166 1.9881967 10.67531197 4.44192159 14.38745117 10.61083984 C17.47344313 16.3260314 20.01508009 22.30699036 22.625 28.25 C23.22796277 29.61092216 23.83147419 30.97160138 24.43554688 32.33203125 C25.90086506 35.63524488 27.35873852 38.94168109 28.8125 42.25 C30.95692559 40.10557441 31.61225711 38.62823891 32.73046875 35.83984375 C33.27670898 34.48959106 33.27670898 34.48959106 33.83398438 33.11206055 C34.21876953 32.14695557 34.60355469 31.18185059 35 30.1875 C35.80586449 28.1926578 36.61185565 26.19786675 37.41796875 24.203125 C37.81935059 23.20474609 38.22073242 22.20636719 38.63427734 21.17773438 C40.34573831 16.92497019 42.07516351 12.6797472 43.8125 8.4375 C44.10278076 7.72134521 44.39306152 7.00519043 44.69213867 6.26733398 C46.69843472 1.36406528 46.69843472 1.36406528 47.8125 0.25 C51.37987558 -0.18934868 54.97419591 -0.31377156 58.5625 -0.5 C59.56539062 -0.56832031 60.56828125 -0.63664062 61.6015625 -0.70703125 C70.98325343 -1.19229113 70.98325343 -1.19229113 74.8125 2.25 C75.88903289 5.04898551 76.00966606 6.55991879 75.1875 9.4375 C73.35562289 11.8522471 71.69044154 12.40767565 68.8125 13.25 C67.8225 13.25 66.8325 13.25 65.8125 13.25 C65.8125 29.42 65.8125 45.59 65.8125 62.25 C68.1225 62.58 70.4325 62.91 72.8125 63.25 C75.13778287 65.57528287 75.10761025 66.09665898 75.125 69.25 C75.14175781 69.95125 75.15851563 70.6525 75.17578125 71.375 C75.05589844 71.99375 74.93601562 72.6125 74.8125 73.25 C70.03677183 76.43381878 64.57205944 75.58327105 58.98852539 75.56567383 C56.8857022 75.56251607 54.78428969 75.58597128 52.68164062 75.61132812 C51.3411476 75.61360152 50.00065081 75.61430443 48.66015625 75.61328125 C47.44336182 75.61626221 46.22656738 75.61924316 44.97290039 75.62231445 C41.57813867 75.22239081 40.16383902 74.69753179 37.8125 72.25 C37.35278793 69.09768868 37.23486365 67.18063634 38.9375 64.4375 C40.8125 63.25 40.8125 63.25 46.8125 62.25 C46.3175 51.855 46.3175 51.855 45.8125 41.25 C45.28140625 42.64992187 44.7503125 44.04984375 44.203125 45.4921875 C43.48962884 47.36980896 42.7760846 49.24741215 42.0625 51.125 C41.71445312 52.0428125 41.36640625 52.960625 41.0078125 53.90625 C40.30215825 55.76185932 39.5918343 57.61569926 38.87695312 59.46777344 C38.16493402 61.32882155 37.47098134 63.19687852 36.79492188 65.07128906 C36.46556641 65.9578418 36.13621094 66.84439453 35.796875 67.7578125 C35.51038086 68.55074707 35.22388672 69.34368164 34.92871094 70.16064453 C33.57951574 72.68610658 32.25218466 73.7771871 29.8125 75.25 C26.375 75.9375 26.375 75.9375 22.8125 75.25 C17.87605076 68.53278468 14.80619474 60.86093818 11.5 53.25 C10.94522935 51.9854278 10.38989487 50.72110279 9.83398438 49.45703125 C8.48796199 46.39044113 7.14946798 43.32054846 5.8125 40.25 C5.4825 47.51 5.1525 54.77 4.8125 62.25 C8.2775 62.745 8.2775 62.745 11.8125 63.25 C13.3125 64.9375 13.3125 64.9375 13.8125 67.25 C13.37771739 72.68478261 13.37771739 72.68478261 10.8125 75.25 C6.70604578 75.70876475 2.5666036 75.57399528 -1.5625 75.5625 C-2.71234375 75.57861328 -3.8621875 75.59472656 -5.046875 75.61132812 C-6.70589844 75.61229492 -6.70589844 75.61229492 -8.3984375 75.61328125 C-9.41212402 75.61626221 -10.42581055 75.61924316 -11.47021484 75.62231445 C-14.59310018 75.19442585 -15.96998898 74.46653586 -18.1875 72.25 C-18.64697423 69.0993196 -18.70975401 67.17162472 -17.125 64.375 C-15.1875 63.25 -15.1875 63.25 -8.1875 63.25 C-8.1875 46.42 -8.1875 29.59 -8.1875 12.25 C-12.6425 11.26 -12.6425 11.26 -17.1875 10.25 C-18.1875 9.25 -18.1875 9.25 -18.5 6.4375 C-18.1875 3.25 -18.1875 3.25 -16.8125 0.875 C-11.76278176 -2.25101605 -5.6251655 -1.20617584 0 0 Z " transform="translate(684.1875,117.75)" style="fill: #20385F;"/><path d="M0 0 C7.19946196 5.73240179 11.58417717 13.56799775 13.6328125 22.4609375 C15.10494783 36.24130453 13.25441679 48.90880452 4.73828125 60.203125 C-3.10808848 68.61722834 -13.60995132 72.43791583 -24.9296875 72.8359375 C-36.63519907 72.43631833 -45.61602257 67.60539442 -53.6796875 59.2734375 C-60.95159904 50.68331092 -63.10766523 39.50806471 -62.3671875 28.4609375 C-61.31456048 18.10722908 -56.83980582 8.95400675 -49.1484375 1.88671875 C-46.33202587 -0.36764582 -43.62196658 -1.94022365 -40.3671875 -3.5390625 C-39.2534375 -4.1165625 -38.1396875 -4.6940625 -36.9921875 -5.2890625 C-24.82319772 -9.54230164 -10.55339034 -6.86144521 0 0 Z M-35.0546875 9.6484375 C-42.32081224 18.48561624 -43.21503869 28.18924979 -42.62011719 39.35546875 C-41.97480881 44.72722499 -39.68908498 49.61812276 -37.3671875 54.4609375 C-36.3771875 54.4609375 -35.3871875 54.4609375 -34.3671875 54.4609375 C-34.3053125 55.0796875 -34.2434375 55.6984375 -34.1796875 56.3359375 C-33.54181556 58.6125916 -33.54181556 58.6125916 -31.4296875 59.7734375 C-25.73424252 61.05200678 -20.50207083 60.32310192 -15.1171875 58.1484375 C-8.40993428 51.59362185 -5.33499626 42.59280971 -5.1171875 33.3359375 C-5.24622852 24.83356775 -7.22210168 14.7265152 -13.3671875 8.4609375 C-21.34812371 3.5150052 -27.69885268 3.66113009 -35.0546875 9.6484375 Z " transform="translate(651.3671875,122.5390625)" style="fill: #20375F;"/><path d="M0 0 C3.73981414 3.52912038 5.48906485 7.84663119 5.81640625 12.94140625 C5.47970456 18.06099865 4.1117231 21.65675181 0.6640625 25.5703125 C-3.23345373 28.22770993 -6.71335211 29.1762246 -11.3671875 28.98828125 C-15.10464383 28.19481334 -16.81075787 26.41113958 -19.3359375 23.5703125 C-19.7109375 20.7578125 -19.7109375 20.7578125 -19.3359375 18.5703125 C-17.6859375 17.9103125 -16.0359375 17.2503125 -14.3359375 16.5703125 C-14.5906889 15.25459647 -14.86527891 13.94270874 -15.1484375 12.6328125 C-15.29925781 11.90191406 -15.45007813 11.17101562 -15.60546875 10.41796875 C-15.84652344 9.80824219 -16.08757813 9.19851562 -16.3359375 8.5703125 C-19.95524448 7.36387684 -22.52824755 7.24762691 -26.3359375 7.5703125 C-32.375761 10.76786612 -35.85404957 14.65493232 -38.0859375 21.0703125 C-40.64303212 30.51189263 -40.36137462 40.59049124 -36.3359375 49.5703125 C-32.88309424 55.05424003 -28.62508994 58.13390114 -22.3359375 59.5703125 C-18.33201404 59.68278226 -15.01506184 59.17747945 -11.3359375 57.5703125 C-9.3366474 55.57894038 -7.72222844 53.48120042 -6.03125 51.2265625 C-4.3359375 49.5703125 -4.3359375 49.5703125 -2.203125 49.1640625 C-0.0234375 49.3828125 -0.0234375 49.3828125 3.6640625 50.5703125 C6.07238344 54.18279391 6.38767105 55.30906218 5.6640625 59.5703125 C1.00057721 66.73110796 -4.83973519 70.91834483 -13.0859375 72.8203125 C-24.81018503 74.76551194 -35.06623356 73.33978862 -45.7109375 67.8203125 C-55.79103852 59.18022591 -60.21682967 49.50615567 -61.55859375 36.39453125 C-62.0521252 24.657066 -58.41165767 13.23565952 -50.484375 4.5390625 C-37.14791294 -8.00039983 -15.34779314 -10.54766031 0 0 Z " transform="translate(582.3359375,121.4296875)" style="fill: #203760;"/><path d="M0 0 C2.75059385 0.95717008 5.45828919 1.990723 8.16699219 3.06054688 C9.09511719 3.40859375 10.02324219 3.75664063 10.97949219 4.11523438 C20.27397703 7.71052221 20.27397703 7.71052221 23.54199219 11.31054688 C24.65136719 14.51757813 24.65136719 14.51757813 25.29199219 18.12304688 C25.51371094 19.30511719 25.73542969 20.4871875 25.96386719 21.70507812 C27.7162847 32.63400628 27.7162847 32.63400628 27.91699219 37.43554688 C27.96597656 38.2425 28.01496094 39.04945312 28.06542969 39.88085938 C27.28672264 43.4954548 25.2828241 44.88582176 22.54199219 47.31054688 C22.03603516 47.76478027 21.53007812 48.21901367 21.00878906 48.68701172 C19.39196761 50.12534642 17.75211822 51.53265594 16.10449219 52.93554688 C15.55728516 53.4125 15.01007813 53.88945313 14.44628906 54.38085938 C9.78481487 58.35276638 5.69531187 61.70758834 -0.71972656 61.23632812 C-5.88941264 60.43557398 -10.49893404 58.58300893 -15.27050781 56.49804688 C-16.10259766 56.15451172 -16.9346875 55.81097656 -17.79199219 55.45703125 C-22.14450154 53.59665636 -25.37398395 52.02737165 -28.45800781 48.31054688 C-29.29516602 45.87207031 -29.29516602 45.87207031 -29.75878906 43.16992188 C-29.93087891 42.18121094 -30.10296875 41.1925 -30.28027344 40.17382812 C-30.52293945 38.63275391 -30.52293945 38.63275391 -30.77050781 37.06054688 C-30.95162109 36.04863281 -31.13273438 35.03671875 -31.31933594 33.99414062 C-32.29198844 28.15822558 -32.93838857 23.08088208 -31.45800781 17.31054688 C-29.37597656 14.70117188 -29.37597656 14.70117188 -26.45800781 12.31054688 C-25.86971191 11.81876953 -25.28141602 11.32699219 -24.67529297 10.8203125 C-22.72747385 9.20647612 -20.75393158 7.63035657 -18.77050781 6.06054688 C-18.09439453 5.51914063 -17.41828125 4.97773437 -16.72167969 4.41992188 C-11.10539997 -0.05074855 -7.26239426 -2.03704821 0 0 Z " transform="translate(273.4580078125,69.689453125)" style="fill: #213960;"/><path d="M0 0 C1.09924805 0.36641602 1.09924805 0.36641602 2.22070312 0.74023438 C6.96540069 2.43018527 10.07164891 4.30202193 13.3125 8.3125 C15.67995787 13.48693241 16.33121442 18.72307898 17.125 24.3125 C17.28419922 25.29734375 17.44339844 26.2821875 17.60742188 27.296875 C18.62481772 34.43311128 18.62481772 34.43311128 17.31640625 38.1171875 C14.55023663 41.14757215 11.58676722 43.81201943 8.4375 46.4375 C7.82519531 46.96214844 7.21289062 47.48679688 6.58203125 48.02734375 C-2.82233258 55.98178425 -2.82233258 55.98178425 -9.1171875 55.73046875 C-17.36053379 54.38998539 -28.74459478 51.41602428 -34.6875 45.3125 C-38.38145958 38.89525634 -38.84684154 30.53119762 -39.6875 23.3125 C-39.78546875 22.52101563 -39.8834375 21.72953125 -39.984375 20.9140625 C-40.24409308 17.1481504 -39.81370316 15.484722 -37.56640625 12.41796875 C-34.74720199 9.2092527 -31.5929089 6.62248256 -28.1875 4.0625 C-27.63191406 3.629375 -27.07632813 3.19625 -26.50390625 2.75 C-17.5829453 -4.05092081 -10.10585058 -3.69373806 0 0 Z " transform="translate(246.6875,27.6875)" style="fill: #213960;"/><path d="M0 0 C3.22693043 1.91839534 4.72595458 3.99858979 5.859375 7.5625 C6.85133745 12.88687962 7.76979866 17.86381757 7.12890625 23.265625 C5.06640625 25.890625 5.06640625 25.890625 2.12890625 28.265625 C1.5978125 28.79414062 1.06671875 29.32265625 0.51953125 29.8671875 C-2.8054615 33.08541443 -5.72902066 35.28700525 -10.5546875 35.5703125 C-16.52208512 34.78539342 -22.35774262 32.15711605 -27.14453125 28.5546875 C-29.52725536 25.39569129 -29.77389694 22.73342485 -30.24609375 18.828125 C-30.41882813 17.53003906 -30.5915625 16.23195313 -30.76953125 14.89453125 C-30.89717844 10.33359901 -30.14851518 7.83565774 -27.28515625 4.31640625 C-26.69476563 3.74277344 -26.104375 3.16914062 -25.49609375 2.578125 C-24.61824219 1.70607422 -24.61824219 1.70607422 -23.72265625 0.81640625 C-16.52144937 -5.21498432 -8.09195634 -3.27315088 0 0 Z " transform="translate(299.87109375,36.734375)" style="fill: #213960;"/></svg>